<svg id="visual" viewBox="0 0 900 600" width="900" height="600" xmlns="http://www.w3.org/2000/svg" xmlns:xlink="http://www.w3.org/1999/xlink" version="1.1"><rect x="0" y="0" width="900" height="600" fill="#001220"></rect><defs><linearGradient id="grad1_0" x1="33.3%" y1="0%" x2="100%" y2="100%"><stop offset="20%" stop-color="#001220" stop-opacity="1"></stop><stop offset="80%" stop-color="#001220" stop-opacity="1"></stop></linearGradient></defs><defs><linearGradient id="grad2_0" x1="0%" y1="0%" x2="66.7%" y2="100%"><stop offset="20%" stop-color="#001220" stop-opacity="1"></stop><stop offset="80%" stop-color="#001220" stop-opacity="1"></stop></linearGradient></defs><g transform="translate(900, 0)"><path d="M0 399C-27.9 388.7 -55.8 378.4 -68.5 344.3C-81.1 310.1 -78.5 252 -103.7 250.4C-128.9 248.7 -181.9 303.5 -199.4 298.5C-217 293.5 -198.9 228.7 -193.7 193.7C-188.5 158.8 -196.2 153.9 -233.6 156.1C-271.1 158.4 -338.5 167.9 -374.7 155.2C-411 142.6 -416.3 107.8 -393.3 78.2C-370.3 48.7 -319.2 24.3 -268 0L0 0Z" fill="#FBAE3C"></path></g><g transform="translate(0, 600)"><path d="M0 -335C22.9 -350.1 45.8 -365.2 74.5 -374.7C103.2 -384.1 137.7 -387.8 148.1 -357.5C158.5 -327.3 144.7 -263 163.9 -245.3C183.1 -227.6 235.3 -256.6 243.2 -243.2C251.2 -229.9 214.8 -174.3 232 -155C249.2 -135.7 319.9 -152.6 346.5 -143.5C373 -134.5 355.5 -99.5 358 -71.2C360.5 -43 383.1 -21.5 405.6 0L0 0Z" fill="#FBAE3C"></path></g></svg>