<svg id="visual" viewBox="0 0 900 600" width="900" height="600" xmlns="http://www.w3.org/2000/svg" xmlns:xlink="http://www.w3.org/1999/xlink" version="1.1"><g stroke-width="1" stroke-linejoin="bevel"><path d="M448 302L431 330L465.3 309Z" fill="#15384f" stroke="#715DF2"></path><path d="M465.3 309L434.7 275L448 302Z" fill="#081a28" stroke="#715DF2"></path><path d="M448 302L434.7 275L431 330Z" fill="#205a7a" stroke="#715DF2"></path><path d="M431 330L473.3 369L465.3 309Z" fill="#00101c" stroke="#715DF2"></path><path d="M434.7 275L375.4 299L431 330Z" fill="#277297" stroke="#715DF2"></path><path d="M399.7 462L471 444L473.3 369Z" fill="#277297" stroke="#715DF2"></path><path d="M473.3 369L541.3 341L465.3 309Z" fill="#277297" stroke="#715DF2"></path><path d="M465.3 309L490 231L434.7 275Z" fill="#15384f" stroke="#715DF2"></path><path d="M547.3 252L490 231L465.3 309Z" fill="#246688" stroke="#715DF2"></path><path d="M434.7 275L367.4 242L375.4 299Z" fill="#081a28" stroke="#715DF2"></path><path d="M375.4 299L341.7 337L431 330Z" fill="#297ea6" stroke="#715DF2"></path><path d="M395 164L367.4 242L434.7 275Z" fill="#1d4e6b" stroke="#715DF2"></path><path d="M375.4 299L282.4 321L341.7 337Z" fill="#19435d" stroke="#715DF2"></path><path d="M541.3 341L547.3 252L465.3 309Z" fill="#081a28" stroke="#715DF2"></path><path d="M374.4 444L473.3 369L431 330Z" fill="#246688" stroke="#715DF2"></path><path d="M473.3 369L586.9 414L541.3 341Z" fill="#00101c" stroke="#715DF2"></path><path d="M541.3 341L568.6 287L547.3 252Z" fill="#297ea6" stroke="#715DF2"></path><path d="M395 164L352.7 226L367.4 242Z" fill="#00101c" stroke="#715DF2"></path><path d="M367.4 242L282.4 321L375.4 299Z" fill="#081a28" stroke="#715DF2"></path><path d="M568.6 287L579.6 264L547.3 252Z" fill="#246688" stroke="#715DF2"></path><path d="M341.7 337L374.4 444L431 330Z" fill="#246688" stroke="#715DF2"></path><path d="M634.6 321L584.9 269L568.6 287Z" fill="#1d4e6b" stroke="#715DF2"></path><path d="M568.6 287L584.9 269L579.6 264Z" fill="#15384f" stroke="#715DF2"></path><path d="M374.4 444L399.7 462L473.3 369Z" fill="#112e42" stroke="#715DF2"></path><path d="M547.3 252L534.3 190L490 231Z" fill="#1d4e6b" stroke="#715DF2"></path><path d="M490 231L395 164L434.7 275Z" fill="#277297" stroke="#715DF2"></path><path d="M570.6 173L534.3 190L547.3 252Z" fill="#081a28" stroke="#715DF2"></path><path d="M570.6 173L547.3 252L603.9 191Z" fill="#15384f" stroke="#715DF2"></path><path d="M282.4 321L311.1 408L341.7 337Z" fill="#1d4e6b" stroke="#715DF2"></path><path d="M341.7 337L311.1 408L374.4 444Z" fill="#19435d" stroke="#715DF2"></path><path d="M374.4 444L356.7 507L399.7 462Z" fill="#246688" stroke="#715DF2"></path><path d="M471 444L586.9 414L473.3 369Z" fill="#0c2435" stroke="#715DF2"></path><path d="M541.3 341L634.6 321L568.6 287Z" fill="#19435d" stroke="#715DF2"></path><path d="M352.7 226L282.4 321L367.4 242Z" fill="#277297" stroke="#715DF2"></path><path d="M437 145L395 164L490 231Z" fill="#00101c" stroke="#715DF2"></path><path d="M195.9 284L254.1 342L282.4 321Z" fill="#112e42" stroke="#715DF2"></path><path d="M247.9 427L308.4 417L311.1 408Z" fill="#205a7a" stroke="#715DF2"></path><path d="M311.1 408L308.4 417L374.4 444Z" fill="#00101c" stroke="#715DF2"></path><path d="M534.3 190L437 145L490 231Z" fill="#19435d" stroke="#715DF2"></path><path d="M536.6 503L535.6 482L475 538Z" fill="#246688" stroke="#715DF2"></path><path d="M471 444L535.6 482L586.9 414Z" fill="#205a7a" stroke="#715DF2"></path><path d="M586.9 414L634.6 321L541.3 341Z" fill="#19435d" stroke="#715DF2"></path><path d="M603.9 191L547.3 252L579.6 264Z" fill="#15384f" stroke="#715DF2"></path><path d="M603.9 191L579.6 264L584.9 269Z" fill="#277297" stroke="#715DF2"></path><path d="M534.3 190L534.3 81L437 145Z" fill="#277297" stroke="#715DF2"></path><path d="M631.9 447L627.6 404L586.9 414Z" fill="#205a7a" stroke="#715DF2"></path><path d="M586.9 414L627.6 404L634.6 321Z" fill="#277297" stroke="#715DF2"></path><path d="M252.1 203L282.4 321L352.7 226Z" fill="#246688" stroke="#715DF2"></path><path d="M282.4 321L254.1 342L311.1 408Z" fill="#081a28" stroke="#715DF2"></path><path d="M475 538L535.6 482L471 444Z" fill="#081a28" stroke="#715DF2"></path><path d="M535.6 482L631.9 447L586.9 414Z" fill="#0c2435" stroke="#715DF2"></path><path d="M698.1 188L603.9 191L584.9 269Z" fill="#19435d" stroke="#715DF2"></path><path d="M239.1 479L328.4 489L308.4 417Z" fill="#277297" stroke="#715DF2"></path><path d="M308.4 417L328.4 489L374.4 444Z" fill="#19435d" stroke="#715DF2"></path><path d="M399.7 462L410 528L471 444Z" fill="#297ea6" stroke="#715DF2"></path><path d="M328.4 489L356.7 507L374.4 444Z" fill="#15384f" stroke="#715DF2"></path><path d="M337.7 117L341.7 143L395 164Z" fill="#1d4e6b" stroke="#715DF2"></path><path d="M395 164L341.7 143L352.7 226Z" fill="#081a28" stroke="#715DF2"></path><path d="M374.7 526L410 528L399.7 462Z" fill="#19435d" stroke="#715DF2"></path><path d="M341.7 143L303.4 169L352.7 226Z" fill="#00101c" stroke="#715DF2"></path><path d="M341.4 600L374.7 526L356.7 507Z" fill="#205a7a" stroke="#715DF2"></path><path d="M356.7 507L374.7 526L399.7 462Z" fill="#00101c" stroke="#715DF2"></path><path d="M500.3 579L475 538L407 600Z" fill="#081a28" stroke="#715DF2"></path><path d="M410 528L475 538L471 444Z" fill="#15384f" stroke="#715DF2"></path><path d="M536.6 503L631.9 447L535.6 482Z" fill="#00101c" stroke="#715DF2"></path><path d="M627.6 404L711.4 322L634.6 321Z" fill="#19435d" stroke="#715DF2"></path><path d="M254.1 342L247.9 427L311.1 408Z" fill="#081a28" stroke="#715DF2"></path><path d="M328.4 489L270.1 526L356.7 507Z" fill="#00101c" stroke="#715DF2"></path><path d="M203.9 402L246.9 430L247.9 427Z" fill="#00101c" stroke="#715DF2"></path><path d="M247.9 427L246.9 430L308.4 417Z" fill="#081a28" stroke="#715DF2"></path><path d="M226.9 182L252.1 203L303.4 169Z" fill="#246688" stroke="#715DF2"></path><path d="M303.4 169L252.1 203L352.7 226Z" fill="#00101c" stroke="#715DF2"></path><path d="M254.1 342L203.9 402L247.9 427Z" fill="#277297" stroke="#715DF2"></path><path d="M341.7 143L299.4 144L303.4 169Z" fill="#00101c" stroke="#715DF2"></path><path d="M437 145L337.7 117L395 164Z" fill="#00101c" stroke="#715DF2"></path><path d="M341.7 143L337.7 117L299.4 144Z" fill="#19435d" stroke="#715DF2"></path><path d="M395 27L337.7 117L437 145Z" fill="#15384f" stroke="#715DF2"></path><path d="M475 538L550.3 537L536.6 503Z" fill="#297ea6" stroke="#715DF2"></path><path d="M536.6 503L550.3 537L631.9 447Z" fill="#19435d" stroke="#715DF2"></path><path d="M226.9 182L241.1 207L252.1 203Z" fill="#246688" stroke="#715DF2"></path><path d="M252.1 203L241.1 207L282.4 321Z" fill="#277297" stroke="#715DF2"></path><path d="M647.9 115L561.3 109L570.6 173Z" fill="#19435d" stroke="#715DF2"></path><path d="M570.6 173L561.3 109L534.3 190Z" fill="#277297" stroke="#715DF2"></path><path d="M561.3 109L534.3 81L534.3 190Z" fill="#205a7a" stroke="#715DF2"></path><path d="M241.1 207L195.9 284L282.4 321Z" fill="#15384f" stroke="#715DF2"></path><path d="M195.9 284L203.9 402L254.1 342Z" fill="#15384f" stroke="#715DF2"></path><path d="M246.9 430L239.1 479L308.4 417Z" fill="#246688" stroke="#715DF2"></path><path d="M731.1 353L711.4 322L627.6 404Z" fill="#277297" stroke="#715DF2"></path><path d="M634.6 321L698.1 188L584.9 269Z" fill="#0c2435" stroke="#715DF2"></path><path d="M603.9 191L647.9 115L570.6 173Z" fill="#15384f" stroke="#715DF2"></path><path d="M407 600L475 538L410 528Z" fill="#205a7a" stroke="#715DF2"></path><path d="M475 538L500.3 579L550.3 537Z" fill="#00101c" stroke="#715DF2"></path><path d="M183.6 462L239.1 479L246.9 430Z" fill="#19435d" stroke="#715DF2"></path><path d="M384.7 600L407 600L410 528Z" fill="#081a28" stroke="#715DF2"></path><path d="M299.4 144L226.9 182L303.4 169Z" fill="#246688" stroke="#715DF2"></path><path d="M241.1 207L185.9 172L195.9 284Z" fill="#15384f" stroke="#715DF2"></path><path d="M250.9 118L226.9 182L299.4 144Z" fill="#15384f" stroke="#715DF2"></path><path d="M195.9 284L197.1 404L203.9 402Z" fill="#112e42" stroke="#715DF2"></path><path d="M203.9 402L183.6 462L246.9 430Z" fill="#297ea6" stroke="#715DF2"></path><path d="M650.9 534L677.1 470L631.9 447Z" fill="#112e42" stroke="#715DF2"></path><path d="M631.9 447L677.1 470L627.6 404Z" fill="#0c2435" stroke="#715DF2"></path><path d="M650.9 534L631.9 447L550.3 537Z" fill="#112e42" stroke="#715DF2"></path><path d="M239.1 479L270.1 526L328.4 489Z" fill="#081a28" stroke="#715DF2"></path><path d="M384.7 600L410 528L374.7 526Z" fill="#246688" stroke="#715DF2"></path><path d="M711.4 322L698.1 188L634.6 321Z" fill="#205a7a" stroke="#715DF2"></path><path d="M561.3 109L583.6 70L534.3 81Z" fill="#081a28" stroke="#715DF2"></path><path d="M747.4 394L731.1 353L627.6 404Z" fill="#112e42" stroke="#715DF2"></path><path d="M711.4 322L741.4 289L698.1 188Z" fill="#112e42" stroke="#715DF2"></path><path d="M698.1 188L677.9 151L603.9 191Z" fill="#205a7a" stroke="#715DF2"></path><path d="M286.4 66L250.9 118L299.4 144Z" fill="#205a7a" stroke="#715DF2"></path><path d="M286.4 66L299.4 144L337.7 117Z" fill="#112e42" stroke="#715DF2"></path><path d="M341.4 600L384.7 600L374.7 526Z" fill="#205a7a" stroke="#715DF2"></path><path d="M626.6 84L583.6 70L561.3 109Z" fill="#1d4e6b" stroke="#715DF2"></path><path d="M411.7 13L395 27L437 145Z" fill="#246688" stroke="#715DF2"></path><path d="M677.9 151L647.9 115L603.9 191Z" fill="#0c2435" stroke="#715DF2"></path><path d="M573.3 600L650.9 534L550.3 537Z" fill="#112e42" stroke="#715DF2"></path><path d="M677.1 470L747.4 394L627.6 404Z" fill="#112e42" stroke="#715DF2"></path><path d="M762.1 317L741.4 289L711.4 322Z" fill="#15384f" stroke="#715DF2"></path><path d="M697.9 68L626.6 84L647.9 115Z" fill="#112e42" stroke="#715DF2"></path><path d="M647.9 115L626.6 84L561.3 109Z" fill="#277297" stroke="#715DF2"></path><path d="M270.1 526L341.4 600L356.7 507Z" fill="#19435d" stroke="#715DF2"></path><path d="M411.7 13L464.3 0L443.7 0Z" fill="#1d4e6b" stroke="#715DF2"></path><path d="M239.1 479L214.9 533L270.1 526Z" fill="#297ea6" stroke="#715DF2"></path><path d="M270.1 526L267.1 600L341.4 600Z" fill="#0c2435" stroke="#715DF2"></path><path d="M197.1 404L183.6 462L203.9 402Z" fill="#205a7a" stroke="#715DF2"></path><path d="M152.6 470L183.6 462L197.1 404Z" fill="#1d4e6b" stroke="#715DF2"></path><path d="M500.3 579L568.6 600L550.3 537Z" fill="#0c2435" stroke="#715DF2"></path><path d="M407 600L568.6 600L500.3 579Z" fill="#081a28" stroke="#715DF2"></path><path d="M207.1 112L185.9 172L226.9 182Z" fill="#277297" stroke="#715DF2"></path><path d="M226.9 182L185.9 172L241.1 207Z" fill="#246688" stroke="#715DF2"></path><path d="M195.9 284L122.6 324L197.1 404Z" fill="#112e42" stroke="#715DF2"></path><path d="M568.6 600L573.3 600L550.3 537Z" fill="#1d4e6b" stroke="#715DF2"></path><path d="M395 27L286.4 66L337.7 117Z" fill="#15384f" stroke="#715DF2"></path><path d="M250.9 118L207.1 112L226.9 182Z" fill="#15384f" stroke="#715DF2"></path><path d="M730.1 463L747.4 394L677.1 470Z" fill="#0c2435" stroke="#715DF2"></path><path d="M731.1 353L762.1 317L711.4 322Z" fill="#112e42" stroke="#715DF2"></path><path d="M411.7 13L437 145L464.3 0Z" fill="#1d4e6b" stroke="#715DF2"></path><path d="M395 27L323.4 0L286.4 66Z" fill="#19435d" stroke="#715DF2"></path><path d="M437 145L534.3 81L464.3 0Z" fill="#112e42" stroke="#715DF2"></path><path d="M727.1 162L697.1 132L677.9 151Z" fill="#00101c" stroke="#715DF2"></path><path d="M677.9 151L697.1 132L647.9 115Z" fill="#277297" stroke="#715DF2"></path><path d="M727.1 162L677.9 151L698.1 188Z" fill="#205a7a" stroke="#715DF2"></path><path d="M805.4 346L762.1 317L731.1 353Z" fill="#112e42" stroke="#715DF2"></path><path d="M739.4 176L727.1 162L698.1 188Z" fill="#19435d" stroke="#715DF2"></path><path d="M694.1 544L730.1 463L677.1 470Z" fill="#19435d" stroke="#715DF2"></path><path d="M183.6 462L214.9 533L239.1 479Z" fill="#112e42" stroke="#715DF2"></path><path d="M230.9 0L261.1 69L286.4 66Z" fill="#205a7a" stroke="#715DF2"></path><path d="M286.4 66L261.1 69L250.9 118Z" fill="#1d4e6b" stroke="#715DF2"></path><path d="M739.4 176L698.1 188L741.4 289Z" fill="#297ea6" stroke="#715DF2"></path><path d="M261.1 69L207.1 112L250.9 118Z" fill="#081a28" stroke="#715DF2"></path><path d="M464.3 0L534.3 81L479 0Z" fill="#205a7a" stroke="#715DF2"></path><path d="M411.7 13L323.4 0L395 27Z" fill="#246688" stroke="#715DF2"></path><path d="M479 0L534.3 81L577.6 0Z" fill="#112e42" stroke="#715DF2"></path><path d="M577.6 0L534.3 81L583.6 70Z" fill="#00101c" stroke="#715DF2"></path><path d="M800.7 167L739.4 176L741.4 289Z" fill="#205a7a" stroke="#715DF2"></path><path d="M106.3 236L195.9 284L185.9 172Z" fill="#205a7a" stroke="#715DF2"></path><path d="M106.3 236L122.6 324L195.9 284Z" fill="#246688" stroke="#715DF2"></path><path d="M183.6 462L161.6 531L214.9 533Z" fill="#246688" stroke="#715DF2"></path><path d="M677.9 598L694.1 544L650.9 534Z" fill="#19435d" stroke="#715DF2"></path><path d="M650.9 534L694.1 544L677.1 470Z" fill="#112e42" stroke="#715DF2"></path><path d="M80.3 445L152.6 470L197.1 404Z" fill="#205a7a" stroke="#715DF2"></path><path d="M160.9 600L267.1 600L214.9 533Z" fill="#205a7a" stroke="#715DF2"></path><path d="M214.9 533L267.1 600L270.1 526Z" fill="#081a28" stroke="#715DF2"></path><path d="M573.3 600L650.9 600L650.9 534Z" fill="#0c2435" stroke="#715DF2"></path><path d="M697.1 132L705.1 91L647.9 115Z" fill="#00101c" stroke="#715DF2"></path><path d="M626.6 84L577.6 0L583.6 70Z" fill="#15384f" stroke="#715DF2"></path><path d="M727.1 162L705.1 91L697.1 132Z" fill="#0c2435" stroke="#715DF2"></path><path d="M800.7 167L705.1 91L727.1 162Z" fill="#277297" stroke="#715DF2"></path><path d="M443.7 0L323.4 0L411.7 13Z" fill="#0c2435" stroke="#715DF2"></path><path d="M129.6 93L185.9 172L207.1 112Z" fill="#00101c" stroke="#715DF2"></path><path d="M700.9 0L577.6 0L626.6 84Z" fill="#0c2435" stroke="#715DF2"></path><path d="M110.3 177L106.3 236L185.9 172Z" fill="#205a7a" stroke="#715DF2"></path><path d="M729.4 21L697.9 68L705.1 91Z" fill="#15384f" stroke="#715DF2"></path><path d="M705.1 91L697.9 68L647.9 115Z" fill="#0c2435" stroke="#715DF2"></path><path d="M84.3 480L161.6 531L152.6 470Z" fill="#19435d" stroke="#715DF2"></path><path d="M152.6 470L161.6 531L183.6 462Z" fill="#205a7a" stroke="#715DF2"></path><path d="M747.4 394L805.4 346L731.1 353Z" fill="#1d4e6b" stroke="#715DF2"></path><path d="M762.1 317L810.7 311L741.4 289Z" fill="#00101c" stroke="#715DF2"></path><path d="M739.4 176L800.7 167L727.1 162Z" fill="#0c2435" stroke="#715DF2"></path><path d="M819.7 381L805.4 346L747.4 394Z" fill="#15384f" stroke="#715DF2"></path><path d="M804.7 440L747.4 394L730.1 463Z" fill="#246688" stroke="#715DF2"></path><path d="M650.9 600L677.9 598L650.9 534Z" fill="#297ea6" stroke="#715DF2"></path><path d="M821.4 448L804.7 440L730.1 463Z" fill="#246688" stroke="#715DF2"></path><path d="M805.4 346L810.7 311L762.1 317Z" fill="#297ea6" stroke="#715DF2"></path><path d="M111.6 150L110.3 177L185.9 172Z" fill="#0c2435" stroke="#715DF2"></path><path d="M111.6 150L185.9 172L129.6 93Z" fill="#246688" stroke="#715DF2"></path><path d="M82.6 194L84.6 246L106.3 236Z" fill="#0c2435" stroke="#715DF2"></path><path d="M106.3 236L84.6 246L122.6 324Z" fill="#081a28" stroke="#715DF2"></path><path d="M122.6 324L80.3 445L197.1 404Z" fill="#205a7a" stroke="#715DF2"></path><path d="M729.4 581L730.1 463L694.1 544Z" fill="#205a7a" stroke="#715DF2"></path><path d="M805.4 346L900 306L810.7 311Z" fill="#081a28" stroke="#715DF2"></path><path d="M804.7 440L819.7 381L747.4 394Z" fill="#0c2435" stroke="#715DF2"></path><path d="M214.1 0L207.1 112L261.1 69Z" fill="#112e42" stroke="#715DF2"></path><path d="M110.3 177L82.6 194L106.3 236Z" fill="#277297" stroke="#715DF2"></path><path d="M677.9 598L729.4 581L694.1 544Z" fill="#205a7a" stroke="#715DF2"></path><path d="M830.4 130L800.7 167L860.7 170Z" fill="#1d4e6b" stroke="#715DF2"></path><path d="M810.7 311L800.7 167L741.4 289Z" fill="#15384f" stroke="#715DF2"></path><path d="M111.6 150L82.6 194L110.3 177Z" fill="#112e42" stroke="#715DF2"></path><path d="M27.3 370L122.6 324L0 328Z" fill="#297ea6" stroke="#715DF2"></path><path d="M27.3 370L80.3 445L122.6 324Z" fill="#1d4e6b" stroke="#715DF2"></path><path d="M323.4 0L230.9 0L286.4 66Z" fill="#081a28" stroke="#715DF2"></path><path d="M650.9 600L724.1 600L677.9 598Z" fill="#205a7a" stroke="#715DF2"></path><path d="M677.9 598L724.1 600L729.4 581Z" fill="#19435d" stroke="#715DF2"></path><path d="M851.7 519L821.4 448L730.1 463Z" fill="#00101c" stroke="#715DF2"></path><path d="M851.7 519L730.1 463L729.4 581Z" fill="#081a28" stroke="#715DF2"></path><path d="M804.7 440L821.4 448L819.7 381Z" fill="#0c2435" stroke="#715DF2"></path><path d="M162.9 14L129.6 93L207.1 112Z" fill="#0c2435" stroke="#715DF2"></path><path d="M0 190L0 214L82.6 194Z" fill="#081a28" stroke="#715DF2"></path><path d="M80.3 445L84.3 480L152.6 470Z" fill="#205a7a" stroke="#715DF2"></path><path d="M230.9 0L214.1 0L261.1 69Z" fill="#277297" stroke="#715DF2"></path><path d="M87.3 549L160.9 600L161.6 531Z" fill="#1d4e6b" stroke="#715DF2"></path><path d="M161.6 531L160.9 600L214.9 533Z" fill="#15384f" stroke="#715DF2"></path><path d="M729.4 21L700.9 0L697.9 68Z" fill="#15384f" stroke="#715DF2"></path><path d="M697.9 68L700.9 0L626.6 84Z" fill="#297ea6" stroke="#715DF2"></path><path d="M830.4 130L729.4 21L705.1 91Z" fill="#277297" stroke="#715DF2"></path><path d="M729.4 21L718.4 0L700.9 0Z" fill="#246688" stroke="#715DF2"></path><path d="M214.1 0L162.9 14L207.1 112Z" fill="#112e42" stroke="#715DF2"></path><path d="M15.3 116L82.6 194L111.6 150Z" fill="#19435d" stroke="#715DF2"></path><path d="M80.3 445L0 442L84.3 480Z" fill="#15384f" stroke="#715DF2"></path><path d="M9.3 268L122.6 324L84.6 246Z" fill="#19435d" stroke="#715DF2"></path><path d="M860.7 170L800.7 167L883.7 206Z" fill="#0c2435" stroke="#715DF2"></path><path d="M800.7 167L830.4 130L705.1 91Z" fill="#081a28" stroke="#715DF2"></path><path d="M729.4 21L751.1 0L718.4 0Z" fill="#0c2435" stroke="#715DF2"></path><path d="M800.7 167L810.7 311L883.7 206Z" fill="#112e42" stroke="#715DF2"></path><path d="M84.3 480L87.3 549L161.6 531Z" fill="#297ea6" stroke="#715DF2"></path><path d="M0 537L87.3 549L84.3 480Z" fill="#112e42" stroke="#715DF2"></path><path d="M724.1 600L779.4 600L729.4 581Z" fill="#277297" stroke="#715DF2"></path><path d="M883.7 206L810.7 311L900 222Z" fill="#19435d" stroke="#715DF2"></path><path d="M162.9 14L118.6 33L129.6 93Z" fill="#00101c" stroke="#715DF2"></path><path d="M0 214L9.3 268L84.6 246Z" fill="#246688" stroke="#715DF2"></path><path d="M789.7 0L729.4 21L830.4 130Z" fill="#19435d" stroke="#715DF2"></path><path d="M789.7 0L751.1 0L729.4 21Z" fill="#205a7a" stroke="#715DF2"></path><path d="M0 214L84.6 246L82.6 194Z" fill="#277297" stroke="#715DF2"></path><path d="M779.4 600L851.7 519L729.4 581Z" fill="#1d4e6b" stroke="#715DF2"></path><path d="M900 388L900 306L819.7 381Z" fill="#081a28" stroke="#715DF2"></path><path d="M900 306L805.4 346L819.7 381Z" fill="#081a28" stroke="#715DF2"></path><path d="M9.3 268L0 328L122.6 324Z" fill="#081a28" stroke="#715DF2"></path><path d="M27.3 370L0 407L80.3 445Z" fill="#246688" stroke="#715DF2"></path><path d="M900 388L819.7 381L900 410Z" fill="#15384f" stroke="#715DF2"></path><path d="M0 328L0 369L27.3 370Z" fill="#1d4e6b" stroke="#715DF2"></path><path d="M89.3 600L92.6 600L87.3 549Z" fill="#15384f" stroke="#715DF2"></path><path d="M87.3 549L92.6 600L160.9 600Z" fill="#15384f" stroke="#715DF2"></path><path d="M900 410L819.7 381L821.4 448Z" fill="#277297" stroke="#715DF2"></path><path d="M0 600L89.3 600L87.3 549Z" fill="#15384f" stroke="#715DF2"></path><path d="M851.7 519L890.7 444L821.4 448Z" fill="#246688" stroke="#715DF2"></path><path d="M0 369L0 407L27.3 370Z" fill="#15384f" stroke="#715DF2"></path><path d="M890.7 444L900 410L821.4 448Z" fill="#1d4e6b" stroke="#715DF2"></path><path d="M900 306L900 222L810.7 311Z" fill="#205a7a" stroke="#715DF2"></path><path d="M883.7 206L900 195L860.7 170Z" fill="#19435d" stroke="#715DF2"></path><path d="M860.7 170L872.7 74L830.4 130Z" fill="#246688" stroke="#715DF2"></path><path d="M0 190L82.6 194L15.3 116Z" fill="#205a7a" stroke="#715DF2"></path><path d="M9.3 268L0 214L0 328Z" fill="#205a7a" stroke="#715DF2"></path><path d="M0 407L0 442L80.3 445Z" fill="#00101c" stroke="#715DF2"></path><path d="M162.9 14L111.6 0L118.6 33Z" fill="#081a28" stroke="#715DF2"></path><path d="M15.3 116L111.6 150L22.3 97Z" fill="#00101c" stroke="#715DF2"></path><path d="M214.1 0L111.6 0L162.9 14Z" fill="#246688" stroke="#715DF2"></path><path d="M900 222L900 195L883.7 206Z" fill="#081a28" stroke="#715DF2"></path><path d="M872.7 74L789.7 0L830.4 130Z" fill="#0c2435" stroke="#715DF2"></path><path d="M111.6 150L129.6 93L22.3 97Z" fill="#246688" stroke="#715DF2"></path><path d="M851.7 519L900 500L890.7 444Z" fill="#1d4e6b" stroke="#715DF2"></path><path d="M779.4 600L828.7 600L851.7 519Z" fill="#00101c" stroke="#715DF2"></path><path d="M22.3 97L129.6 93L118.6 33Z" fill="#277297" stroke="#715DF2"></path><path d="M57.3 0L22.3 97L118.6 33Z" fill="#1d4e6b" stroke="#715DF2"></path><path d="M900 503L900 500L851.7 519Z" fill="#246688" stroke="#715DF2"></path><path d="M890.7 444L900 500L900 410Z" fill="#081a28" stroke="#715DF2"></path><path d="M900 600L900 503L851.7 519Z" fill="#277297" stroke="#715DF2"></path><path d="M900 66L872.7 74L860.7 170Z" fill="#277297" stroke="#715DF2"></path><path d="M0 442L0 537L84.3 480Z" fill="#297ea6" stroke="#715DF2"></path><path d="M0 85L0 91L22.3 97Z" fill="#205a7a" stroke="#715DF2"></path><path d="M22.3 97L0 91L15.3 116Z" fill="#19435d" stroke="#715DF2"></path><path d="M15.3 116L0 91L0 190Z" fill="#246688" stroke="#715DF2"></path><path d="M111.6 0L57.3 0L118.6 33Z" fill="#19435d" stroke="#715DF2"></path><path d="M57.3 0L0 85L22.3 97Z" fill="#1d4e6b" stroke="#715DF2"></path><path d="M900 195L900 66L860.7 170Z" fill="#081a28" stroke="#715DF2"></path><path d="M872.7 74L900 0L789.7 0Z" fill="#246688" stroke="#715DF2"></path><path d="M0 537L0 600L87.3 549Z" fill="#19435d" stroke="#715DF2"></path><path d="M900 66L900 45L872.7 74Z" fill="#246688" stroke="#715DF2"></path><path d="M828.7 600L900 600L851.7 519Z" fill="#19435d" stroke="#715DF2"></path><path d="M57.3 0L0 0L0 85Z" fill="#277297" stroke="#715DF2"></path><path d="M900 45L900 0L872.7 74Z" fill="#15384f" stroke="#715DF2"></path></g></svg>